<svg t="1699104830212" class="icon" viewBox="0 0 1024 1024" version="1.1" xmlns="http://www.w3.org/2000/svg" p-id="1472" width="200" height="200"><path d="M873.194557 228.883918l-165.896691 69.055836v428.120492l165.896691 69.055836s96.327111 13.89251 96.32711-53.001317v-230.114765-230.114765c0-66.893827-96.327111-53.001317-96.32711-53.001317z m21.406024 492.488409l-1.380688 0.010703c-0.010703 0-1.530531 0-2.247633-0.021406l-108.753308-45.263039V347.901415l108.764011-45.263039c0.695696-0.021406 3.168092-0.021406 3.617618-0.010703v418.744654z" fill="currentColor" p-id="1473"></path><path d="M675.188829 166.827853h-503.041579c-59.112737 0-107.030123 47.928089-107.030123 107.030123v476.284048c0 59.102034 47.917386 107.030123 107.030123 107.030123h503.041579c59.102034 0 107.030123-47.928089 107.030123-107.030123v-476.284048c0-59.112737-47.928089-107.030123-107.030123-107.030123z m32.109037 583.314171c0 17.702782-14.406255 32.109037-32.109037 32.109037h-503.041579c-17.702782 0-32.109037-14.406255-32.109037-32.109037v-476.284048c0-17.702782 14.406255-32.109037 32.109037-32.109037h503.041579c17.702782 0 32.109037 14.406255 32.109037 32.109037v476.284048z" fill="currentColor" p-id="1474"></path><path d="M507.954261 380.888099a37.460543 37.460543 0 0 1-37.460543 37.460543h-192.654221a37.460543 37.460543 0 1 1 0-74.921086h192.654221a37.460543 37.460543 0 0 1 37.460543 37.460543z" fill="currentColor" p-id="1475"></path></svg>